<?xml version="1.0" encoding="utf-8"?>
<!-- Generator: Adobe Illustrator 12.0.0, SVG Export Plug-In . SVG Version: 6.00 Build 51448)  -->
<!DOCTYPE svg PUBLIC "-//W3C//DTD SVG 1.1//EN" "http://www.w3.org/Graphics/SVG/1.1/DTD/svg11.dtd" [
	<!ENTITY ns_svg "http://www.w3.org/2000/svg">
	<!ENTITY ns_xlink "http://www.w3.org/1999/xlink">
]>
<svg  version="1.1" id="Layer_1" xmlns="&ns_svg;" xmlns:xlink="&ns_xlink;" width="168" height="230" viewBox="0 0 168 230"
	 style="overflow:visible;enable-background:new 0 0 168 230;" xml:space="preserve">
<style type="text/css">
<![CDATA[
	.st0{fill:none;stroke:#000000;stroke-width:0.5;stroke-linecap:round;}
	.st1{fill:none;stroke:#000000;stroke-width:2;}
]]>
</style>
<g>
	<g>
		<g>
			<path class="st0" d="M116,17c4.479,0.111,8.98,2.791,11.75,6.25"/>
			<path class="st0" d="M127.75,23.25c8.629,5.689,10.555,14.512,12.986,20.897c4.068,10.688,8.832,21.208,12,31.003
				c4.421,13.662-0.104,42.441,0.514,57.6"/>
			<path class="st0" d="M23,167c-0.168-0.217-0.335-0.434-0.503-0.65c-2.43-12.352-5.979-24.201-8.235-38.49
				c-1.591-10.072,2.121-17.287,6.475-28.006C29.498,78.279,39.158,50.663,48,35"/>
			<path class="st0" d="M48,35c0.033-1.91,0.712-3.774,1.5-5.5"/>
			<path class="st0" d="M49.5,29.5c0.187-3.104,2.492-5.198,2.735-8.219c9.214-3.282,16.302-6.255,23.91-9.018
				C90.116,7.19,100.152,11.246,116,17"/>
			<path class="st0" d="M49.5,29.5c20.019,0.09,41.025-4.185,61.5-5.5"/>
			<path class="st0" d="M111,24c5.355,2.422,9.93,6.955,15.75,8"/>
			<path class="st0" d="M116,17c-0.246,3.168-3.813,4.335-5,7"/>
			<path class="st0" d="M48,35c4.344,40.563,5.57,82.009,8,123"/>
			<path class="st0" d="M56,158c7.011,2.535,13.899,4.718,21,7"/>
			<path class="st0" d="M77,165c20.216-23.966,41.186-47.641,62-71"/>
			<path class="st0" d="M139,94c-3.348-20.676-8.438-41.254-12.25-62"/>
			<path class="st0" d="M139,94c5.748,12.412,7.544,27.081,14.25,38.75"/>
			<path class="st0" d="M127.75,23.25c-1.579,2.619-0.152,5.92-1,8.75"/>
			<path class="st0" d="M23,167c3.669-0.343,4.521,4.386,7.833,5.167"/>
			<path class="st0" d="M30.833,172.167C38.852,166.684,47.876,163.323,56,158"/>
			<path class="st0" d="M77,165c9.01,14.545,18.577,28.663,28,43"/>
			<path class="st0" d="M105,208c10.131-2.031,19.922-5.916,30-7.5"/>
			<path class="st0" d="M153.5,162.5c0.757-9.823,0.998-19.963-0.25-29.75"/>
			<path class="st0" d="M30.833,172.167c1.072,6.147,5.941,10.585,7.167,16.583"/>
			<path class="st0" d="M38,188.75c20.453,8.418,40.498,17.295,60.833,25.417"/>
			<path class="st0" d="M98.833,214.167c1.226-2.937,4.608-3.672,6.167-6.167"/>
			<path class="st0" d="M136.5,207.5c6.003-2.979,11.375-7.348,17.258-10.708c0.24-11.353,0.736-23.013-0.258-34.292"/>
			<path class="st0" d="M153.5,162.5c-8.052,10.939-11.488,25.867-18.5,38"/>
			<path class="st0" d="M27.833,189.167c3.177-1.815,6.846,0.354,10.167-0.417"/>
			<path class="st0" d="M23,167c0.88,7.523,1.437,15.771,4.833,22.167"/>
			<path class="st0" d="M103.5,220.5c-0.719-2.672-3.721-3.801-4.667-6.333"/>
			<path class="st0" d="M27.833,189.167c4.593,11.458,30.954,20.094,48.314,27.569c9.873,4.25,18.787,6.752,27.353,3.764"/>
			<path class="st0" d="M103.5,220.5c11.548-4.008,22.161-8.029,33-13"/>
			<path class="st0" d="M136.5,207.5c-0.682-2.301-0.366-4.798-1.5-7"/>
			<path class="st0" d="M84,43c-0.376-0.682-0.553-1.375-0.735-1.965c0.104-3.398,4.946-4.877,7.008-2.3
				c0.901,1.348,0.994,3.19-0.035,4.514C88.881,45.011,84.996,45.313,84,43"/>
		</g>
	</g>
</g>
<g>
	<path class="st1" d="M182.517,179.267c-2.304-3.947-5.43-7.072-9.377-9.377c-3.948-2.304-8.258-3.455-12.934-3.455
		c-4.675,0-8.985,1.151-12.934,3.455c-3.947,2.304-7.073,5.43-9.377,9.377c-2.305,3.948-3.456,8.26-3.456,12.934
		c0,4.675,1.152,8.985,3.456,12.934c2.304,3.947,5.429,7.073,9.377,9.377c3.948,2.305,8.259,3.456,12.934,3.456
		s8.986-1.151,12.934-3.456c3.947-2.303,7.073-5.43,9.377-9.377s3.455-8.259,3.455-12.934S184.82,183.214,182.517,179.267z
		 M175.236,194.348c0,0.581-0.213,1.085-0.638,1.51s-0.928,0.638-1.51,0.638H164.5v8.588c0,0.582-0.213,1.085-0.638,1.511
		c-0.425,0.425-0.928,0.637-1.51,0.637h-4.294c-0.581,0-1.085-0.212-1.51-0.637c-0.425-0.426-0.638-0.929-0.638-1.511v-8.588h-8.589
		c-0.581,0-1.084-0.213-1.51-0.638c-0.425-0.424-0.637-0.928-0.637-1.51v-4.295c0-0.581,0.212-1.084,0.637-1.51
		c0.426-0.425,0.929-0.637,1.51-0.637h8.589v-8.589c0-0.582,0.213-1.085,0.638-1.51s0.929-0.638,1.51-0.638h4.295
		c0.581,0,1.085,0.213,1.51,0.638s0.638,0.928,0.638,1.51v8.589h8.588c0.582,0,1.085,0.212,1.51,0.637s0.638,0.929,0.638,1.51
		V194.348z"/>
</g>
</svg>
