<?xml version="1.0" encoding="iso-8859-1"?>
<!-- Generator: Adobe Illustrator 19.0.0, SVG Export Plug-In . SVG Version: 6.00 Build 0)  -->
<svg version="1.1" id="Layer_1" xmlns="http://www.w3.org/2000/svg" xmlns:xlink="http://www.w3.org/1999/xlink" x="0px" y="0px"
	 viewBox="0 0 456 456" style="enable-background:new 0 0 456 456;" xml:space="preserve">
<g>
	<g>
		<path d="M444,368c-6.628,0-12,5.372-12,12v12h-12c-6.628,0-12,5.372-12,12s5.372,12,12,12h24c6.628,0,12-5.372,12-12v-24
			C456,373.372,450.628,368,444,368z"/>
	</g>
</g>
<g>
	<g>
		<g>
			<path d="M121.332,392H78.664c-6.628,0-12,5.372-12,12s5.372,12,12,12h42.668c6.628,0,12-5.372,12-12S127.96,392,121.332,392z"/>
			<path d="M206.664,392h-42.668c-6.628,0-12,5.372-12,12s5.372,12,12,12h42.668c6.628,0,12-5.372,12-12S213.292,392,206.664,392z"
				/>
			<path d="M377.332,392h-42.668c-6.628,0-12,5.372-12,12s5.372,12,12,12h42.668c6.628,0,12-5.372,12-12S383.96,392,377.332,392z"/>
			<path d="M292,392h-42.668c-6.628,0-12,5.372-12,12s5.372,12,12,12H292c6.628,0,12-5.372,12-12S298.628,392,292,392z"/>
		</g>
	</g>
</g>
<g>
	<g>
		<path d="M36,392H24v-12c0-6.628-5.372-12-12-12s-12,5.372-12,12v24c0,6.628,5.372,12,12,12h24c6.628,0,12-5.372,12-12
			S42.628,392,36,392z"/>
	</g>
</g>
<g>
	<g>
		<g>
			<path d="M12,278.4c-6.628,0-12,5.372-12,12v44.8c0,6.628,5.372,12,12,12s12-5.372,12-12v-44.8C24,283.772,18.628,278.4,12,278.4z
				"/>
			<path d="M12,188.8c-6.628,0-12,5.372-12,12v44.796c0,6.628,5.372,12,12,12s12-5.368,12-12V200.8
				C24,194.172,18.628,188.8,12,188.8z"/>
		</g>
	</g>
</g>
<g>
	<g>
		<path d="M36,120H12c-6.628,0-12,5.372-12,12v24c0,6.628,5.372,12,12,12s12-5.372,12-12v-12h12c6.628,0,12-5.372,12-12
			S42.628,120,36,120z"/>
	</g>
</g>
<g>
	<g>
		<g>
			<path d="M121.336,120H78.668c-6.628,0-12,5.372-12,12s5.372,12,12,12h42.668c6.628,0,12-5.372,12-12S127.964,120,121.336,120z"/>
			<path d="M206.668,120H164c-6.628,0-12,5.372-12,12s5.372,12,12,12h42.668c6.628,0,12-5.372,12-12S213.296,120,206.668,120z"/>
			<path d="M377.336,120h-42.668c-6.628,0-12,5.372-12,12s5.372,12,12,12h42.668c6.628,0,12-5.372,12-12S383.964,120,377.336,120z"
				/>
			<path d="M292.004,120H264c-6.628,0-12,5.372-12,12s5.372,12,12,12h28.004c6.628,0,12-5.372,12-12S298.632,120,292.004,120z"/>
		</g>
	</g>
</g>
<g>
	<g>
		<path d="M444,120h-24c-6.628,0-12,5.372-12,12s5.372,12,12,12h12v12c0,6.628,5.372,12,12,12s12-5.372,12-12v-24
			C456,125.372,450.628,120,444,120z"/>
	</g>
</g>
<g>
	<g>
		<g>
			<path d="M444,278.404c-6.628,0-12,5.372-12,12V335.2c0,6.628,5.372,12,12,12s12-5.372,12-12v-44.796
				C456,283.776,450.628,278.404,444,278.404z"/>
			<path d="M444,188.8c-6.628,0-12,5.372-12,12v44.8c0,6.628,5.372,12,12,12s12-5.368,12-12v-44.8
				C456,194.172,450.628,188.8,444,188.8z"/>
		</g>
	</g>
</g>
<g>
	<g>
		<path d="M80,188c-4.416,0-8,3.584-8,8v148c0,4.416,3.584,8,8,8s8-3.584,8-8V196C88,191.584,84.416,188,80,188z"/>
	</g>
</g>
<g>
	<g>
		<path d="M188,212c-4.416,0-8,3.584-8,8v124c0,4.416,3.584,8,8,8s8-3.584,8-8V220C196,215.584,192.416,212,188,212z"/>
	</g>
</g>
<g>
	<g>
		<path d="M212,188c-4.416,0-8,3.584-8,8v148c0,4.416,3.584,8,8,8s8-3.584,8-8V196C220,191.584,216.416,188,212,188z"/>
	</g>
</g>
<g>
	<g>
		<path d="M352,188c-4.416,0-8,3.584-8,8v148c0,4.416,3.584,8,8,8c4.416,0,8-3.584,8-8V196C360,191.584,356.416,188,352,188z"/>
	</g>
</g>
<g>
	<g>
		<path d="M376,188c-4.416,0-8,3.584-8,8v148c0,4.416,3.584,8,8,8c4.416,0,8-3.584,8-8V196C384,191.584,380.416,188,376,188z"/>
	</g>
</g>
<g>
	<g>
		<path d="M280,188c-4.416,0-8,3.584-8,8v148c0,4.416,3.584,8,8,8c4.416,0,8-3.584,8-8V196C288,191.584,284.416,188,280,188z"/>
	</g>
</g>
<g>
	<g>
		<path d="M112,188.228c-6.628,0-12,5.372-12,12v139.544c0,6.628,5.372,12,12,12s12-5.368,12-11.996V200.228
			C124,193.6,118.628,188.228,112,188.228z"/>
	</g>
</g>
<g>
	<g>
		<path d="M144,188.228c-6.628,0-12,5.372-12,12v139.544c0,6.628,5.372,12,12,12s12-5.368,12-11.996V200.228
			C156,193.6,150.628,188.228,144,188.228z"/>
	</g>
</g>
<g>
	<g>
		<path d="M244,188.228c-6.628,0-12,5.372-12,12v139.544c0,6.628,5.372,12,12,12s12-5.368,12-11.996V200.228
			C256,193.6,250.628,188.228,244,188.228z"/>
	</g>
</g>
<g>
	<g>
		<path d="M324,188.228c-6.628,0-12,5.372-12,12v139.544c0,6.628,5.372,12,12,12s12-5.368,12-11.996V200.228
			C336,193.6,330.628,188.228,324,188.228z"/>
	</g>
</g>
<g>
	<g>
		<path d="M374.732,82.636c-2.968-5.932-10.176-8.324-16.1-5.368L217.368,147.9c-5.928,2.964-8.328,10.172-5.368,16.1
			c2.108,4.204,6.34,6.636,10.744,6.636c1.804,0,3.636-0.408,5.356-1.268l141.264-70.632
			C375.292,95.772,377.692,88.564,374.732,82.636z"/>
	</g>
</g>
<g>
	<g>
		<path d="M369.364,165.268L231.996,97.264c-5.916-2.948-13.132-0.556-16.1,5.368c-2.96,5.928-0.556,13.136,5.368,16.1
			l137.368,68.004c1.724,0.856,3.556,1.268,5.36,1.268c4.4,0,8.636-2.432,10.74-6.636
			C377.692,175.44,375.288,168.232,369.364,165.268z"/>
	</g>
</g>
<g>
	<g>
		<path d="M184,40c-28.672,0-52,23.328-52,52s23.328,52,52,52s52-23.328,52-52S212.672,40,184,40z M184,120
			c-15.436,0-28-12.564-28-28s12.564-28,28-28c15.436,0,28,12.564,28,28S199.436,120,184,120z"/>
	</g>
</g>
<g>
	<g>
		<path d="M184,120c-28.672,0-52,23.328-52,52s23.328,52,52,52s52-23.328,52-52S212.672,120,184,120z M184,200
			c-15.436,0-28-12.564-28-28c0-15.436,12.564-28,28-28c15.436,0,28,12.564,28,28C212,187.436,199.436,200,184,200z"/>
	</g>
</g>
<g>
</g>
<g>
</g>
<g>
</g>
<g>
</g>
<g>
</g>
<g>
</g>
<g>
</g>
<g>
</g>
<g>
</g>
<g>
</g>
<g>
</g>
<g>
</g>
<g>
</g>
<g>
</g>
<g>
</g>
</svg>
