<?xml version="1.0" encoding="utf-8"?>
<!-- Generator: Adobe Illustrator 12.0.0, SVG Export Plug-In . SVG Version: 6.00 Build 51448)  -->
<!DOCTYPE svg PUBLIC "-//W3C//DTD SVG 1.1//EN" "http://www.w3.org/Graphics/SVG/1.1/DTD/svg11.dtd" [
	<!ENTITY ns_svg "http://www.w3.org/2000/svg">
	<!ENTITY ns_xlink "http://www.w3.org/1999/xlink">
]>
<svg  version="1.1" id="Layer_1" xmlns="&ns_svg;" xmlns:xlink="&ns_xlink;" width="155.525" height="250.362"
	 viewBox="0 0 155.525 250.362" style="overflow:visible;enable-background:new 0 0 155.525 250.362;" xml:space="preserve">
<style type="text/css">
<![CDATA[
	.st0{fill:none;stroke:#010101;}
	.st1{fill:#010101;}
]]>
</style>
<g>
	<g>
		<g>
			<path class="st0" d="M75.007,247.613h12.484c0.174,1.262,1.074,2.249,2.214,2.249h28.382c1.145,0,2.041-0.983,2.215-2.249h12.484
				c2.111,0,3.822-1.986,3.822-4.433H71.191C71.191,245.627,72.899,247.613,75.007,247.613z"/>
			<path class="st0" d="M151.643,202.019c-3.182-2.991-7.661-3.041-10.612-2.663c0.082-2.387,0.131-4.828,0.131-7.368H63.345
				c0,24.414,3.182,42.029,23.323,48.603h31.169c7.977-2.597,13.266-6.967,16.775-12.771c7.641-0.174,19.936-3.667,20.398-15.918
				C155.209,206.537,153.288,203.563,151.643,202.019z M137.815,220.814c1.463-4.365,2.33-9.277,2.811-14.681
				c2.065-0.393,5.623-0.643,7.422,1.056c0.33,0.316,1.358,1.285,1.24,4.428C149.048,217.964,142.262,220.095,137.815,220.814z"/>
			<path class="st0" d="M95.047,188.56c0,0,14.811-1.262,8.023-15.761c-5.452-11.639-4.207-18.467,2.767-24.637
				c0,0-22.842,6.755-9.521,27.657C101.202,184.927,95.047,188.56,95.047,188.56z"/>
			<path class="st0" d="M105.029,187.397c0,0,11.866-2.902,5.407-13.98c-2.343-4.804,0.889-6.519,0.889-6.519
				s-7.638,0.281-4.414,7.898C109.491,180.923,108.728,184.401,105.029,187.397z"/>
		</g>
	</g>
	<g>
		<path class="st0" d="M38.53,49.407c11.118,0,20.133-10.948,20.133-24.453c0-13.505-2.96-24.454-20.133-24.454
			S18.397,11.448,18.397,24.954C18.397,38.458,27.411,49.407,38.53,49.407z"/>
		<path class="st0" d="M0.504,86.744C0.5,85.92,0.497,86.512,0.504,86.744L0.504,86.744z"/>
		<path class="st0" d="M76.554,87.387C76.565,87.162,76.557,85.822,76.554,87.387L76.554,87.387z"/>
		<path class="st0" d="M76.511,85.756c-0.373-23.525-3.445-30.229-26.958-34.473c0,0-3.31,4.217-11.024,4.217
			c-7.714,0-11.024-4.217-11.024-4.217C4.249,55.48,0.99,62.084,0.561,84.992c-0.035,1.871-0.051,1.969-0.058,1.752
			c0.001,0.406,0.003,1.159,0.003,2.471c0,0,5.598,11.285,38.022,11.285c32.424,0,38.023-11.285,38.023-11.285
			c0-0.843,0.001-1.429,0.001-1.828C76.547,87.521,76.536,87.262,76.511,85.756z"/>
	</g>
	<g>
		<g>
			<path class="st1" d="M36.341,111.046c0.471-0.001,0.923,0.202,1.257,0.548c0.334,0.346,0.533,0.816,0.533,1.308
				c0.002,0.491-0.194,0.961-0.527,1.31c-0.332,0.349-0.784,0.554-1.254,0.556c-0.471,0.001-0.923-0.202-1.258-0.549
				c-0.334-0.347-0.532-0.816-0.533-1.307c-0.001-0.491,0.194-0.962,0.527-1.31C35.418,111.232,35.869,111.047,36.341,111.046z"/>
			<path class="st1" d="M85.1,116.278c0.452-0.001,0.885,0.16,1.239,0.507c0.709,0.714,0.73,1.88,0.046,2.618
				c-0.685,0.738-1.804,0.761-2.513,0.068c-0.709-0.714-0.731-1.879-0.066-2.617C84.159,116.484,84.629,116.279,85.1,116.278z"/>
			<path class="st1" d="M88.021,121.688c0.254-0.143,0.529-0.205,0.804-0.206c0.647-0.002,1.276,0.365,1.593,1.019
				c0.454,0.918,0.104,2.023-0.779,2.496c-0.882,0.473-1.942,0.108-2.396-0.812C86.786,123.266,87.138,122.162,88.021,121.688z"/>
			<path class="st1" d="M89.069,140.479c0.846,0.529,1.104,1.674,0.596,2.533c-0.508,0.881-1.607,1.149-2.453,0.621
				c-0.846-0.531-1.104-1.676-0.596-2.557c0.333-0.572,0.921-0.881,1.51-0.882C88.46,140.213,88.774,140.294,89.069,140.479z"/>
			<path class="st1" d="M88.685,135.654c0.174-0.881,0.918-1.476,1.723-1.479c0.119,0,0.256,0.02,0.373,0.041
				c0.963,0.201,1.574,1.182,1.381,2.184c-0.194,1.003-1.135,1.641-2.097,1.438S88.489,136.656,88.685,135.654z"/>
			<path class="st1" d="M85.432,145.783c0.63,0.795,0.517,1.962-0.249,2.617c-0.764,0.656-1.884,0.537-2.514-0.258
				c-0.631-0.797-0.516-1.963,0.249-2.619c0.332-0.287,0.726-0.41,1.117-0.412C84.565,145.11,85.077,145.335,85.432,145.783z"/>
			<path class="st1" d="M16.226,167.637c0.135-0.921,0.899-1.598,1.762-1.6c0.079-0.001,0.176-0.002,0.255,0.02
				c0.982,0.141,1.652,1.079,1.517,2.102c-0.134,1.023-1.036,1.721-2.018,1.58C16.761,169.598,16.091,168.658,16.226,167.637z"/>
			<path class="st1" d="M21.25,182.06c-0.843,0.513-1.943,0.229-2.437-0.648c-0.493-0.878-0.221-2.022,0.622-2.537
				c0.275-0.163,0.588-0.247,0.902-0.247c0.609-0.002,1.198,0.324,1.534,0.916C22.384,180.4,22.112,181.547,21.25,182.06z"/>
			<path class="st1" d="M23.692,154.734c0.472-0.001,0.962,0.202,1.297,0.59c0.669,0.755,0.633,1.921-0.091,2.617
				c-0.725,0.697-1.844,0.66-2.513-0.096c-0.669-0.754-0.633-1.92,0.091-2.617C22.829,154.9,23.261,154.736,23.692,154.734z"/>
			<path class="st1" d="M29.621,154.719c-0.902,0.411-1.943-0.016-2.339-0.955c-0.395-0.939,0.014-2.025,0.917-2.436
				c0.235-0.102,0.471-0.143,0.707-0.145c0.687-0.001,1.336,0.405,1.632,1.121C30.932,153.224,30.523,154.309,29.621,154.719z"/>
			<path class="st1" d="M25.737,186.608c-0.626,0.778-1.765,0.884-2.512,0.21c-0.748-0.652-0.849-1.838-0.203-2.617
				c0.352-0.43,0.862-0.656,1.353-0.656c0.412-0.002,0.805,0.141,1.16,0.446C26.262,184.664,26.363,185.828,25.737,186.608z"/>
			<path class="st1" d="M17.79,172.58c0.117-0.021,0.235-0.041,0.333-0.041c0.824-0.002,1.592,0.608,1.751,1.508
				c0.179,1.002-0.446,1.985-1.408,2.172c-0.961,0.187-1.906-0.466-2.085-1.468l0,0C16.203,173.75,16.828,172.768,17.79,172.58z"/>
			<path class="st1" d="M19.916,159.877c0.275,0,0.569,0.06,0.825,0.202c0.865,0.468,1.202,1.592,0.752,2.493
				c-0.449,0.9-1.528,1.25-2.393,0.783c-0.865-0.469-1.202-1.592-0.753-2.493C18.661,160.248,19.269,159.879,19.916,159.877z"/>
			<path class="st1" d="M92.437,129.304c0.121,1.023-0.564,1.944-1.545,2.069c-0.981,0.127-1.867-0.588-1.987-1.59
				c-0.12-1.021,0.563-1.944,1.526-2.068c0.078-0.021,0.157-0.021,0.236-0.021C91.55,127.691,92.316,128.364,92.437,129.304z"/>
			<path class="st1" d="M47.483,153.242c-0.982,0.002-1.79-0.814-1.792-1.857c-0.002-1.021,0.801-1.861,1.781-1.863
				c0.982-0.003,1.789,0.834,1.792,1.855C49.247,152.42,48.463,153.239,47.483,153.242z"/>
			<path class="st1" d="M65.872,112.81c-0.002-1.022,0.78-1.863,1.781-1.866c0.981-0.003,1.789,0.834,1.791,1.856
				c0.002,1.023-0.8,1.863-1.781,1.866C66.681,114.669,65.875,113.832,65.872,112.81z"/>
			<path class="st1" d="M47.083,112.858c-0.002-1.022,0.781-1.863,1.782-1.866c0.982-0.002,1.789,0.834,1.791,1.857
				c0.003,1.022-0.8,1.864-1.782,1.866C47.894,114.717,47.087,113.88,47.083,112.858z"/>
			<path class="st1" d="M66.25,153.193c-0.982,0.003-1.788-0.813-1.791-1.856c-0.003-1.021,0.8-1.861,1.782-1.864
				c0.981-0.002,1.788,0.834,1.791,1.855C68.035,152.371,67.251,153.191,66.25,153.193z"/>
			<path class="st1" d="M53.744,153.226c-0.981,0.003-1.788-0.813-1.79-1.856c-0.003-1.021,0.78-1.861,1.781-1.864
				c0.982-0.002,1.789,0.833,1.792,1.854C55.509,152.402,54.726,153.224,53.744,153.226z"/>
			<path class="st1" d="M40.841,112.874c-0.002-1.022,0.78-1.863,1.782-1.866c0.981-0.002,1.789,0.834,1.792,1.857
				s-0.8,1.863-1.782,1.866C41.631,114.733,40.843,113.896,40.841,112.874z"/>
			<path class="st1" d="M53.347,112.842c-0.003-1.022,0.8-1.863,1.781-1.866c0.982-0.002,1.79,0.834,1.792,1.856
				c0.002,1.022-0.781,1.863-1.783,1.866C54.156,114.701,53.349,113.864,53.347,112.842z"/>
			<path class="st1" d="M59.609,112.826c-0.003-1.022,0.78-1.863,1.782-1.866c0.98-0.003,1.769,0.834,1.771,1.856
				c0.002,1.022-0.781,1.863-1.762,1.866C60.418,114.685,59.611,113.848,59.609,112.826z"/>
			<path class="st1" d="M60.007,153.209c-0.98,0.004-1.788-0.813-1.791-1.855c-0.002-1.021,0.78-1.861,1.781-1.865
				c0.982-0.002,1.79,0.834,1.792,1.855C61.771,152.387,60.989,153.207,60.007,153.209z"/>
			<path class="st1" d="M39.429,151.423c-0.003-1.023,0.8-1.864,1.782-1.866c0.98-0.002,1.789,0.834,1.791,1.857
				c0.002,1.021-0.78,1.861-1.781,1.865C40.238,153.26,39.431,152.444,39.429,151.423z"/>
			<path class="st1" d="M37.623,189.992c-0.017,1.021-0.839,1.842-1.821,1.805c-0.982-0.018-1.75-0.875-1.733-1.898
				c0.017-1.021,0.839-1.822,1.821-1.803C36.872,188.133,37.659,188.971,37.623,189.992z"/>
			<path class="st1" d="M33.187,151.602c-0.063-1.021,0.662-1.902,1.643-1.987c0.039,0,0.079-0.001,0.118-0.001
				c0.923-0.002,1.71,0.732,1.771,1.714c0.062,1.022-0.663,1.903-1.644,1.987C34.094,153.398,33.247,152.624,33.187,151.602z"/>
			<path class="st1" d="M31.398,189.373c-0.351,0.963-1.37,1.438-2.293,1.07c-0.924-0.365-1.379-1.428-1.027-2.391
				c0.273-0.734,0.939-1.188,1.666-1.189c0.216,0,0.432,0.041,0.629,0.121C31.295,187.35,31.749,188.412,31.398,189.373z"/>
			<path class="st1" d="M80.317,149.539c0.336,0.959-0.132,2.024-1.074,2.375l0,0c-0.922,0.349-1.943-0.139-2.279-1.1
				c-0.336-0.959,0.131-2.024,1.073-2.373c0.195-0.084,0.411-0.105,0.608-0.105C79.372,148.314,80.06,148.782,80.317,149.539z"/>
			<path class="st1" d="M72.532,153.178c-0.982,0.002-1.788-0.814-1.791-1.836c-0.003-1.023,0.781-1.863,1.762-1.865c0,0,0,0,0.02,0
				c0.981-0.003,1.769,0.814,1.791,1.836C74.298,152.336,73.514,153.175,72.532,153.178z"/>
			<path class="st1" d="M79.928,112.65c0.255,0,0.491,0.061,0.747,0.162c0.902,0.427,1.299,1.53,0.889,2.451
				c-0.41,0.943-1.449,1.354-2.354,0.926c-0.903-0.426-1.299-1.53-0.889-2.451C78.614,113.063,79.261,112.652,79.928,112.65z"/>
			<path class="st1" d="M72.134,112.712c0.077-0.961,0.859-1.7,1.763-1.702c0.058,0,0.098,0,0.157,0c0.982,0.08,1.711,0.979,1.615,2
				c-0.076,1.023-0.938,1.782-1.919,1.682l0,0C72.787,114.632,72.059,113.734,72.134,112.712z"/>
			<path class="st1" d="M43.45,188.629c0.334,0.346,0.513,0.814,0.514,1.307c0.001,0.49-0.194,0.961-0.507,1.311
				c-0.333,0.348-0.784,0.553-1.254,0.555c-0.472,0-0.924-0.203-1.258-0.549c-0.334-0.348-0.532-0.816-0.534-1.307
				c0-0.492,0.194-0.963,0.527-1.311c0.333-0.35,0.784-0.555,1.255-0.557C42.664,188.098,43.115,188.281,43.45,188.629z"/>
		</g>
	</g>
</g>
</svg>
