<?xml version="1.0" encoding="utf-8"?>
<!-- Generator: Adobe Illustrator 12.0.0, SVG Export Plug-In . SVG Version: 6.00 Build 51448)  -->
<!DOCTYPE svg PUBLIC "-//W3C//DTD SVG 1.1//EN" "http://www.w3.org/Graphics/SVG/1.1/DTD/svg11.dtd" [
	<!ENTITY ns_svg "http://www.w3.org/2000/svg">
	<!ENTITY ns_xlink "http://www.w3.org/1999/xlink">
]>
<svg  version="1.1" id="Layer_1" xmlns="&ns_svg;" xmlns:xlink="&ns_xlink;" width="62.833" height="100.25"
	 viewBox="0 0 62.833 100.25" style="overflow:visible;enable-background:new 0 0 62.833 100.25;" xml:space="preserve">
<style type="text/css">
<![CDATA[
	.st0{fill:none;stroke:#010101;}
	.st1{fill:none;stroke:#010101;stroke-width:0.25;}
]]>
</style>
<g>
	<circle class="st1" cx="28.458" cy="88.458" r="3.333"/>
	<path class="st1" d="M53.458,76.791h-50V13.458h50v21.667h3.334V7.467c0-4.047-3.294-7.342-7.342-7.342H7.467
		c-4.048,0-7.342,3.295-7.342,7.342v85.314c0,4.049,3.293,7.344,7.342,7.344h41.982c4.048,0,7.342-3.295,7.342-7.342V53.459h-3.334
		v23.332H53.458z M33.458,5.125h1.666c0.92,0,1.668,0.745,1.668,1.667c0,0.922-0.748,1.667-1.668,1.667h-1.666
		c-0.92,0-1.666-0.745-1.666-1.667C31.792,5.87,32.539,5.125,33.458,5.125z M21.792,5.125h6.667c0.92,0,1.666,0.745,1.666,1.667
		c0,0.922-0.746,1.667-1.666,1.667h-6.667c-0.92,0-1.667-0.745-1.667-1.667C20.125,5.87,20.872,5.125,21.792,5.125z M28.458,95.125
		c-3.677,0-6.667-2.99-6.667-6.666c0-3.678,2.99-6.668,6.667-6.668s6.666,2.99,6.666,6.668
		C35.125,92.135,32.135,95.125,28.458,95.125z"/>
	<path class="st0" d="M58.708,41.791H33.171l14.311-14.31c1.302-1.301,1.302-3.412,0-4.713c-0.65-0.652-1.504-0.977-2.357-0.977
		c-0.853,0-1.706,0.325-2.355,0.977L22.77,42.766c-0.157,0.154-0.295,0.328-0.418,0.512c-0.054,0.079-0.088,0.164-0.135,0.246
		c-0.06,0.108-0.125,0.211-0.172,0.326c-0.045,0.109-0.07,0.223-0.103,0.334c-0.028,0.097-0.065,0.188-0.085,0.288
		c-0.085,0.432-0.085,0.873,0,1.306c0.02,0.1,0.057,0.191,0.085,0.287c0.033,0.112,0.058,0.226,0.103,0.334
		c0.047,0.113,0.112,0.219,0.172,0.326c0.045,0.082,0.082,0.169,0.135,0.247c0.123,0.184,0.261,0.354,0.418,0.512l19.999,19.998
		c1.299,1.302,3.412,1.302,4.713,0c1.302-1.302,1.302-3.411,0-4.713l-14.311-14.31h25.287c1.84,0,3.875-1.494,3.875-3.334
		S60.548,41.791,58.708,41.791z"/>
</g>
</svg>
