<?xml version="1.0" encoding="UTF-8" standalone="no"?>
<!-- Created with Inkscape (http://www.inkscape.org/) -->

<svg
   xmlns:dc="http://purl.org/dc/elements/1.1/"
   xmlns:cc="http://creativecommons.org/ns#"
   xmlns:rdf="http://www.w3.org/1999/02/22-rdf-syntax-ns#"
   xmlns:svg="http://www.w3.org/2000/svg"
   xmlns="http://www.w3.org/2000/svg"
   xmlns:sodipodi="http://sodipodi.sourceforge.net/DTD/sodipodi-0.dtd"
   xmlns:inkscape="http://www.inkscape.org/namespaces/inkscape"
   width="53.563541mm"
   height="10.456131mm"
   viewBox="0 0 53.563541 10.456131"
   version="1.1"
   id="svg8"
   inkscape:version="0.92.1 r15371"
   sodipodi:docname="logo-nearables.svg"
   inkscape:export-filename="C:\Users\kris\Projects\Nearables\src\assets\logo-nearables.png"
   inkscape:export-xdpi="109.32"
   inkscape:export-ydpi="109.32">
  <defs
     id="defs2" />
  <sodipodi:namedview
     id="base"
     pagecolor="#ffffff"
     bordercolor="#666666"
     borderopacity="1.0"
     inkscape:pageopacity="0.0"
     inkscape:pageshadow="2"
     inkscape:zoom="1.4"
     inkscape:cx="-96.467897"
     inkscape:cy="-9.2171256"
     inkscape:document-units="mm"
     inkscape:current-layer="g5248"
     showgrid="false"
     fit-margin-top="0"
     fit-margin-left="0"
     fit-margin-right="0"
     fit-margin-bottom="0"
     inkscape:window-width="2560"
     inkscape:window-height="1377"
     inkscape:window-x="1912"
     inkscape:window-y="-8"
     inkscape:window-maximized="1" />
  <metadata
     id="metadata5">
    <rdf:RDF>
      <cc:Work
         rdf:about="">
        <dc:format>image/svg+xml</dc:format>
        <dc:type
           rdf:resource="http://purl.org/dc/dcmitype/StillImage" />
        <dc:title></dc:title>
      </cc:Work>
    </rdf:RDF>
  </metadata>
  <g
     inkscape:label="Layer 1"
     inkscape:groupmode="layer"
     id="layer1"
     transform="translate(-96.443303,-169.84372)">
    <g
       id="g5248"
       transform="matrix(0.8192562,0,0,0.8192562,22.156231,31.64314)">
      <text
         inkscape:export-ydpi="109.32"
         inkscape:export-xdpi="109.32"
         id="text4498"
         y="180.29985"
         x="94.020363"
         style="font-style:normal;font-variant:normal;font-weight:normal;font-stretch:normal;font-size:10.58333302px;line-height:125%;font-family:'Spin Cycle';-inkscape-font-specification:'Spin Cycle';letter-spacing:0px;word-spacing:0px;fill:#4d4d4d;fill-opacity:1;stroke:none;stroke-width:0.26458332px;stroke-linecap:butt;stroke-linejoin:miter;stroke-opacity:1"
         xml:space="preserve"><tspan
           id="tspan4500"
           style="fill:#4d4d4d;stroke-width:0.26458332px"
           y="180.29985"
           x="94.020363"
           sodipodi:role="line">NEARABLES</tspan></text>
      <g
         transform="matrix(0.26458333,0,0,0.26458333,47.70205,42.794778)"
         id="g4585">
        <g
           id="g4525">
          <g
             id="g4523">
            <path
               inkscape:export-ydpi="109.32"
               inkscape:export-xdpi="109.32"
               style="fill:#00d4aa;stroke-width:0.07755613"
               inkscape:connector-curvature="0"
               d="m 204.857,487.51563 c -0.0136,-0.02 -0.029,-0.0386 -0.0461,-0.0558 -4.6913,-4.69122 -10.92859,-7.27485 -17.56291,-7.27485 -6.63391,0 -12.87067,2.58309 -17.56173,7.27384 -0.0729,0.0724 -0.11478,0.1714 -0.11478,0.27548 0,0.10284 0.0408,0.20149 0.11362,0.27424 l 2.56811,2.5682 c 0.0727,0.0727 0.17132,0.11353 0.27416,0.11353 0.10284,0 0.2015,-0.0409 0.27417,-0.11353 3.86508,-3.86533 8.99558,-5.99393 14.44645,-5.99393 5.45081,0 10.5813,2.12868 14.44646,5.99384 0.0727,0.0727 0.17132,0.11355 0.27409,0.11355 0.10284,0 0.20157,-0.0409 0.27416,-0.11355 l 2.56811,-2.56819 c 0.0727,-0.0727 0.11362,-0.17132 0.11362,-0.27424 1.6e-4,-0.0779 -0.0235,-0.1541 -0.0674,-0.21863 z"
               id="path4515" />
            <path
               inkscape:export-ydpi="109.32"
               inkscape:export-xdpi="109.32"
               style="fill:#00d4aa;stroke-width:0.07755613"
               inkscape:connector-curvature="0"
               d="m 187.24796,486.97676 c -4.81283,0 -9.34249,1.87927 -12.75473,5.29159 -0.15139,0.15146 -0.15139,0.39701 8e-5,0.54839 l 2.56013,2.56005 c 0.0727,0.0727 0.17132,0.11362 0.27415,0.11362 0.10284,0 0.2015,-0.0409 0.27416,-0.11362 2.58084,-2.58083 6.00658,-4.00228 9.64621,-4.00228 3.63978,0 7.06552,1.42145 9.64611,4.00228 0.0727,0.0727 0.17141,0.11362 0.27425,0.11362 0.10283,0 0.20149,-0.0409 0.27415,-0.11362 l 2.56021,-2.56005 c 0.0727,-0.0727 0.11362,-0.17132 0.11362,-0.27424 0,-0.10292 -0.0407,-0.20149 -0.11362,-0.27424 -3.41224,-3.41216 -7.9419,-5.2915 -12.75472,-5.2915 z"
               id="path4517" />
          </g>
        </g>
        <g
           id="g4527" />
        <g
           id="g4529" />
        <g
           id="g4531" />
        <g
           id="g4533" />
        <g
           id="g4535" />
        <g
           id="g4537" />
        <g
           id="g4539" />
        <g
           id="g4541" />
        <g
           id="g4543" />
        <g
           id="g4545" />
        <g
           id="g4547" />
        <g
           id="g4549" />
        <g
           id="g4551" />
        <g
           id="g4553" />
        <g
           id="g4555" />
      </g>
    </g>
  </g>
</svg>
