<?xml version="1.0" encoding="utf-8"?>
<!-- Generator: Adobe Illustrator 12.0.0, SVG Export Plug-In . SVG Version: 6.00 Build 51448)  -->
<!DOCTYPE svg PUBLIC "-//W3C//DTD SVG 1.1//EN" "http://www.w3.org/Graphics/SVG/1.1/DTD/svg11.dtd" [
	<!ENTITY ns_svg "http://www.w3.org/2000/svg">
	<!ENTITY ns_xlink "http://www.w3.org/1999/xlink">
]>
<svg  version="1.1" id="Layer_1" xmlns="&ns_svg;" xmlns:xlink="&ns_xlink;" width="383.06" height="565.093"
	 viewBox="0 0 383.06 565.093" style="overflow:visible;enable-background:new 0 0 383.06 565.093;" xml:space="preserve">
<style type="text/css">
<![CDATA[
	.st0{fill:none;stroke:#040303;}
	.st1{fill:#010101;}
]]>
</style>
<g>
	<path class="st0" d="M315.63,94.76c-2.105-2.105-5.524-2.105-7.628,0l-38.754,38.752l-22.073-22.07
		c-2.105-2.105-5.522-2.105-7.628,0l-16.682,16.682c-2.107,2.108-2.107,5.522,0,7.63c2.104,2.105,5.522,2.105,7.628,0l12.867-12.867
		l22.072,22.07c1.052,1.054,2.434,1.58,3.815,1.58c1.381,0,2.761-0.526,3.814-1.58l38.755-38.752l14.017,14.019
		c2.105,2.105,5.524,2.105,7.63,0c2.105-2.107,2.105-5.522,0-7.63L315.63,94.76z"/>
	<path class="st0" d="M282.515,258.196c-29.451,0-53.409,23.959-53.409,53.412c0,29.451,23.958,53.412,53.409,53.412
		s53.412-23.961,53.412-53.412C335.927,282.155,311.966,258.196,282.515,258.196z M324.782,306.212H284.75l-28.295-28.295
		c7.211-5.591,16.25-8.932,26.06-8.932C304.189,268.985,322.121,285.248,324.782,306.212z M239.895,311.606
		c0-9.81,3.34-18.85,8.931-26.06l27.378,27.377l-14.159,36.054C248.854,341.725,239.895,327.694,239.895,311.606z M282.515,354.229
		c-3.598,0-7.091-0.453-10.432-1.297l14.108-35.93h38.591C322.121,337.965,304.189,354.229,282.515,354.229z"/>
	<path class="st0" d="M96.372,260.491h41.805c1.927,0,3.708-1.028,4.673-2.697c0.962-1.669,0.962-3.726,0-5.395l-38.814-67.227
		c-0.962-1.671-2.744-2.699-4.671-2.699c-1.929,0-3.711,1.028-4.673,2.699l-16.231,28.11l-5.792-10.034
		c-0.962-1.669-2.744-2.697-4.671-2.697c-1.929,0-3.708,1.028-4.673,2.697l-28.375,49.152c-0.964,1.669-0.964,3.726,0,5.395
		c0.962,1.67,2.744,2.697,4.671,2.697h56.75V260.491z M99.365,198.66l29.468,51.041H69.897L99.365,198.66z M67.998,216.736
		l4.234,7.336l-14.798,25.63h-8.466L67.998,216.736z"/>
	<path class="st0" d="M70.455,117.761h98.236c2.979,0,5.395-2.417,5.395-5.397c0-2.979-2.416-5.395-5.395-5.395H70.455
		c-2.98,0-5.395,2.416-5.395,5.395C65.06,115.345,67.474,117.761,70.455,117.761z"/>
	<path class="st0" d="M31.162,117.761h22.102c2.98,0,5.395-2.417,5.395-5.397c0-2.979-2.414-5.395-5.395-5.395H31.162
		c-2.98,0-5.395,2.416-5.395,5.395C25.767,115.345,28.181,117.761,31.162,117.761z"/>
	<path class="st0" d="M174.083,133.24c0-2.98-2.414-5.395-5.395-5.395H31.162c-2.98,0-5.395,2.414-5.395,5.395
		s2.415,5.395,5.395,5.395h137.529C171.669,138.635,174.083,136.219,174.083,133.24z"/>
	<path class="st0" d="M237.454,205.651c-2.98,0-5.396,2.417-5.396,5.397c0,2.978,2.416,5.395,5.396,5.395h98.234
		c2.979,0,5.395-2.417,5.395-5.395c0-2.98-2.416-5.397-5.395-5.397H237.454z"/>
	<path class="st0" d="M198.159,216.442h22.103c2.98,0,5.395-2.417,5.395-5.395c0-2.98-2.414-5.397-5.395-5.397h-22.103
		c-2.979,0-5.395,2.417-5.395,5.397C192.765,214.026,195.181,216.442,198.159,216.442z"/>
	<path class="st0" d="M198.159,237.316h137.529c2.979,0,5.395-2.414,5.395-5.395s-2.416-5.395-5.395-5.395H198.159
		c-2.979,0-5.395,2.414-5.395,5.395S195.181,237.316,198.159,237.316z"/>
	<path class="st0" d="M184.653,295.773H86.417c-2.98,0-5.395,2.417-5.395,5.397c0,2.979,2.414,5.395,5.395,5.395h98.236
		c2.979,0,5.395-2.416,5.395-5.395C190.048,298.19,187.632,295.773,184.653,295.773z"/>
	<path class="st0" d="M47.124,295.773c-2.98,0-5.395,2.417-5.395,5.397c0,2.979,2.414,5.395,5.395,5.395h22.102
		c2.98,0,5.395-2.416,5.395-5.395c0-2.98-2.415-5.397-5.395-5.397H47.124z"/>
	<path class="st0" d="M184.653,316.65H47.124c-2.98,0-5.395,2.414-5.395,5.395s2.414,5.395,5.395,5.395h137.529
		c2.979,0,5.395-2.414,5.395-5.395S187.632,316.65,184.653,316.65z"/>
	<g>
		<path class="st0" d="M376.915,0.5H65.011c-1.487,0-2.942,0.603-3.992,1.653L2.153,61.009C1.103,62.059,0.5,63.514,0.5,65v366.355
			c0,3.112,2.532,5.645,5.645,5.645h311.702c1.481,0,2.934-0.6,3.985-1.646l59.066-58.855c1.071-1.064,1.661-2.484,1.661-3.998
			V6.145C382.56,3.032,380.027,0.5,376.915,0.5z M382.06,6.145V372.5c0,1.379-0.538,2.673-1.514,3.644
			C380.545,376.145,321.479,435,321.479,435c-0.958,0.953-2.281,1.5-3.632,1.5H6.145C3.308,436.5,1,434.192,1,431.355V65
			c0-1.355,0.549-2.681,1.506-3.638L61.373,2.506C62.33,1.549,63.656,1,65.011,1h311.904C379.752,1,382.06,3.308,382.06,6.145z"/>
		<path class="st1" d="M314.139,558.217l-60.335-62.744c15.391-15.435,24.924-36.71,24.924-60.176
			c0-47.02-38.247-85.268-85.268-85.268c-47.02,0-85.269,38.248-85.269,85.268s38.249,85.267,85.269,85.267
			c20.637,0,39.581-7.376,54.344-19.618l60.479,62.899c0.794,0.832,1.861,1.248,2.928,1.248c1.015,0,2.025-0.378,2.814-1.135
			C315.641,562.404,315.689,559.833,314.139,558.217z M193.46,512.444c-42.542,0-77.148-34.607-77.148-77.147
			c0-42.541,34.606-77.147,77.148-77.147c42.54,0,77.146,34.606,77.146,77.147C270.605,477.837,235.996,512.444,193.46,512.444z"/>
	</g>
</g>
</svg>
